# xmcd
#
# Track frame offsets:
#	150
#	6706
#	17796
#	20102
#	31973
#	39956
#	62224
#	69018
#	78346
#	87929
#	113537
#	123697
#	128499
#	134455
#	149837
#	161265
#	171619
#	176845
#	184121
#	202451
#
# Disc length: 2761 seconds
#
# Revision: 0
# Processed by: cddbd v1.5.2PL0 Copyright (c) Steve Scherf et al.
# Submitted via: audiograbber 1.83.01
#
DISCID=250ac714
DTITLE=Claude Bourbon - Over the Mountains CD2
DYEAR=2012
DGENRE=Blues
TTITLE0=Greensleeves 
TTITLE1=1850 
TTITLE2=Bach Gavotte Intro
TTITLE3=Kauanoe 
TTITLE4=Welsher Tanz
TTITLE5=Souviens-Toi
TTITLE6=What If a Day
TTITLE7=Dance With the Witch
TTITLE8=Au-Dessus Des Nuages
TTITLE9=Bolero 
TTITLE10=Turkish March
TTITLE11=A Toy
TTITLE12=English Dance
TTITLE13=Claude's Lullaby
TTITLE14=Whirlwind
TTITLE15=Apres L'orage
TTITLE16=Paduana Alla
TTITLE17=Bockington's Pound
TTITLE18=Misty Lady
TTITLE19=Lawrence Gibson
EXTD=
EXTT0=
EXTT1=
EXTT2=
EXTT3=
EXTT4=
EXTT5=
EXTT6=
EXTT7=
EXTT8=
EXTT9=
EXTT10=
EXTT11=
EXTT12=
EXTT13=
EXTT14=
EXTT15=
EXTT16=
EXTT17=
EXTT18=
EXTT19=
PLAYORDER=
